<svg width="114" height="123" viewBox="0 0 114 123" fill="none" xmlns="http://www.w3.org/2000/svg">
<g filter="url(#filter0_d_3_510)">
<path d="M67.9685 49.381H70.0519V46.2381H73.1769V44.1429H70.0519V41H67.9685V44.1429H64.8435V46.2381H67.9685V49.381ZM63.8019 58.8095C62.656 58.8095 61.729 59.7524 61.729 60.9048C61.729 62.0571 62.656 63 63.8019 63C64.9477 63 65.8852 62.0571 65.8852 60.9048C65.8852 59.7524 64.9477 58.8095 63.8019 58.8095ZM74.2185 58.8095C73.0727 58.8095 72.1456 59.7524 72.1456 60.9048C72.1456 62.0571 73.0727 63 74.2185 63C75.3644 63 76.3019 62.0571 76.3019 60.9048C76.3019 59.7524 75.3644 58.8095 74.2185 58.8095ZM63.979 55.4048L64.0102 55.279L64.9477 53.5714H72.7081C73.4894 53.5714 74.1769 53.1419 74.531 52.4924L78.5519 45.1486L76.7394 44.1429H76.729L75.5831 46.2381L72.7081 51.4762H65.3956L65.2602 51.1933L62.9269 46.2381L61.9373 44.1429L60.9581 42.0476H57.5519V44.1429H59.6352L63.3852 52.0943L61.979 54.661C61.8123 54.9543 61.7185 55.3 61.7185 55.6667C61.7185 56.819 62.656 57.7619 63.8019 57.7619H76.3019V55.6667H64.2394C64.104 55.6667 63.979 55.5514 63.979 55.4048Z" fill="black"/>
<path d="M73.5519 40.5C73.5519 35.8056 77.3575 32 82.0519 32H89.0519C93.7463 32 97.5519 35.8056 97.5519 40.5C97.5519 45.1944 93.7463 49 89.0519 49H82.0519C77.3575 49 73.5519 45.1944 73.5519 40.5Z" fill="#FFBA60"/>
<path d="M85.0088 38.5C84.9488 38.5333 84.8488 38.5767 84.7088 38.63C84.5688 38.6767 84.4621 38.7133 84.3888 38.74C84.0954 38.8333 83.9121 38.9 83.8388 38.94V37.79C84.0654 37.6967 84.3388 37.5633 84.6588 37.39C84.9854 37.21 85.2154 37.0467 85.3488 36.9H86.5588V45H85.0088V38.5Z" fill="white"/>
</g>
<defs>
<filter id="filter0_d_3_510" x="0.55188" y="-14" width="147" height="137" filterUnits="userSpaceOnUse" color-interpolation-filters="sRGB">
<feFlood flood-opacity="0" result="BackgroundImageFix"/>
<feColorMatrix in="SourceAlpha" type="matrix" values="0 0 0 0 0 0 0 0 0 0 0 0 0 0 0 0 0 0 127 0" result="hardAlpha"/>
<feOffset dy="4"/>
<feGaussianBlur stdDeviation="25"/>
<feColorMatrix type="matrix" values="0 0 0 0 0 0 0 0 0 0 0 0 0 0 0 0 0 0 0.3 0"/>
<feBlend mode="normal" in2="BackgroundImageFix" result="effect1_dropShadow_3_510"/>
<feBlend mode="normal" in="SourceGraphic" in2="effect1_dropShadow_3_510" result="shape"/>
</filter>
</defs>
</svg>
