<svg width="98" height="57" viewBox="0 0 98 57" fill="none" xmlns="http://www.w3.org/2000/svg">
<path d="M38.1228 43.4789H33.8462C33.3727 44.5468 33.136 45.2872 33.136 45.7003C33.136 46.0025 33.2468 46.1939 33.4684 46.2745C33.7001 46.3551 34.0427 46.3954 34.496 46.3954V46.9999H30.3554V46.3954C30.5972 46.3652 30.8037 46.3249 30.975 46.2745C31.1563 46.2241 31.3125 46.1536 31.4435 46.063C31.5845 45.9723 31.7054 45.8564 31.8061 45.7154C31.9069 45.5643 32.0026 45.3829 32.0933 45.1714L36.0676 35.2128H37.1859L40.7975 44.038C41.0091 44.5518 41.1854 44.9548 41.3265 45.2469C41.4776 45.5391 41.6337 45.7658 41.7949 45.927C41.9662 46.0781 42.1576 46.1839 42.3692 46.2443C42.5908 46.3047 42.8729 46.3501 43.2154 46.3803V46.9999H37.5032V46.3803C37.9868 46.3602 38.3344 46.3098 38.5459 46.2292C38.7575 46.1486 38.8633 45.9874 38.8633 45.7456C38.8633 45.6046 38.828 45.4232 38.7575 45.2016C38.687 44.98 38.5913 44.708 38.4704 44.3856L38.1228 43.4789ZM34.1938 42.5722H37.7903L36.0525 37.9934H35.9921L34.1938 42.5722ZM54.0594 46.9999H42.9977V46.6523L50.5988 36.1497H46.7756C46.0301 36.1497 45.4659 36.3361 45.0831 36.7089C44.7104 37.0816 44.4535 37.6609 44.3124 38.4467H43.7231L43.9648 35.3639H53.7572V35.7115L46.2316 46.1536H50.5535C51.0975 46.1536 51.5408 46.1083 51.8833 46.0176C52.2359 45.927 52.518 45.7658 52.7296 45.5341C52.9512 45.3023 53.1225 44.9951 53.2434 44.6122C53.3643 44.2294 53.47 43.7408 53.5607 43.1464H54.2558L54.0594 46.9999ZM60.7519 46.9999H55.3571V46.3954C55.6996 46.3853 55.9716 46.3551 56.1731 46.3047C56.3847 46.2443 56.5459 46.1385 56.6567 45.9874C56.7675 45.8363 56.8431 45.6247 56.8834 45.3527C56.9237 45.0706 56.9438 44.6928 56.9438 44.2193V38.1445C56.9438 37.7214 56.9237 37.3738 56.8834 37.1018C56.8532 36.8197 56.7877 36.5981 56.6869 36.4369C56.5862 36.2757 56.4401 36.1649 56.2487 36.1044C56.0674 36.0339 55.8205 35.9886 55.5082 35.9684V35.3639H60.6008V35.9684C60.2885 35.9886 60.0367 36.0339 59.8453 36.1044C59.6639 36.1649 59.5229 36.2757 59.4221 36.4369C59.3214 36.5981 59.2509 36.8197 59.2106 37.1018C59.1803 37.3738 59.1652 37.7214 59.1652 38.1445V44.2193C59.1652 44.6928 59.1803 45.0706 59.2106 45.3527C59.2509 45.6247 59.3264 45.8363 59.4372 45.9874C59.5581 46.1385 59.7193 46.2443 59.9208 46.3047C60.1324 46.3551 60.4094 46.3853 60.7519 46.3954V46.9999ZM68.2472 35.2128C69.1539 35.2128 70.0001 35.369 70.7859 35.6813C71.5717 35.9936 72.2518 36.4218 72.826 36.9658C73.4103 37.5098 73.8687 38.1495 74.2012 38.8849C74.5336 39.6204 74.6998 40.4163 74.6998 41.2726C74.6998 42.0886 74.5286 42.8543 74.186 43.5695C73.8536 44.2848 73.3952 44.9094 72.8109 45.4434C72.2367 45.9673 71.5566 46.3853 70.7708 46.6976C69.985 46.9999 69.1438 47.151 68.2472 47.151C67.3506 47.151 66.5094 46.9999 65.7235 46.6976C64.9377 46.3853 64.2527 45.9673 63.6684 45.4434C63.0841 44.9094 62.6257 44.2848 62.2932 43.5695C61.9608 42.8543 61.7945 42.0886 61.7945 41.2726C61.7945 40.4163 61.9608 39.6204 62.2932 38.8849C62.6257 38.1495 63.079 37.5098 63.6533 36.9658C64.2376 36.4218 64.9226 35.9936 65.7084 35.6813C66.4942 35.369 67.3405 35.2128 68.2472 35.2128ZM68.2472 46.1687C68.8315 46.1687 69.3604 46.0579 69.8339 45.8363C70.3074 45.6046 70.7104 45.2822 71.0428 44.8691C71.3753 44.446 71.6271 43.9373 71.7984 43.3429C71.9798 42.7384 72.0704 42.0634 72.0704 41.3179C72.0704 40.5321 71.9798 39.8269 71.7984 39.2023C71.6271 38.5676 71.3753 38.0286 71.0428 37.5853C70.7104 37.132 70.3074 36.7895 69.8339 36.5578C69.3604 36.316 68.8315 36.1951 68.2472 36.1951C67.6528 36.1951 67.1189 36.316 66.6454 36.5578C66.1819 36.7895 65.784 37.132 65.4515 37.5853C65.1191 38.0286 64.8622 38.5676 64.6808 39.2023C64.5096 39.8269 64.424 40.5321 64.424 41.3179C64.424 42.0634 64.5096 42.7384 64.6808 43.3429C64.8622 43.9373 65.1191 44.446 65.4515 44.8691C65.784 45.2822 66.1819 45.6046 66.6454 45.8363C67.1189 46.0579 67.6528 46.1687 68.2472 46.1687ZM86.1339 46.9999H75.722V46.3954C76.0545 46.3853 76.3265 46.3551 76.538 46.3047C76.7496 46.2544 76.9108 46.1687 77.0216 46.0478C77.1324 45.927 77.208 45.7557 77.2483 45.5341C77.2886 45.3124 77.3087 45.0253 77.3087 44.6727V37.6911C77.3087 37.3385 77.2886 37.0564 77.2483 36.8449C77.218 36.6232 77.1526 36.452 77.0518 36.3311C76.9511 36.2001 76.805 36.1145 76.6136 36.0742C76.4322 36.0238 76.1905 35.9886 75.8882 35.9684V35.3639H81.1017V35.9684C80.7592 35.9785 80.4822 36.0087 80.2706 36.0591C80.0691 36.1094 79.913 36.2001 79.8021 36.3311C79.6913 36.4621 79.6158 36.6434 79.5755 36.8751C79.5452 37.1068 79.5301 37.4141 79.5301 37.7969V44.1287C79.5301 44.5518 79.5704 44.8994 79.651 45.1714C79.7417 45.4333 79.8928 45.6398 80.1044 45.7909C80.3159 45.932 80.598 46.0327 80.9506 46.0932C81.3032 46.1436 81.7415 46.1687 82.2653 46.1687C82.8496 46.1687 83.3382 46.1335 83.7311 46.063C84.1241 45.9924 84.4515 45.8615 84.7134 45.6701C84.9854 45.4686 85.202 45.2016 85.3632 44.8691C85.5244 44.5367 85.6604 44.1035 85.7712 43.5695H86.3757L86.1339 46.9999ZM92.5394 46.9999H87.1446V46.3954C87.4871 46.3853 87.7591 46.3551 87.9606 46.3047C88.1722 46.2443 88.3334 46.1385 88.4442 45.9874C88.555 45.8363 88.6306 45.6247 88.6709 45.3527C88.7112 45.0706 88.7313 44.6928 88.7313 44.2193V38.1445C88.7313 37.7214 88.7112 37.3738 88.6709 37.1018C88.6407 36.8197 88.5752 36.5981 88.4744 36.4369C88.3737 36.2757 88.2276 36.1649 88.0362 36.1044C87.8548 36.0339 87.608 35.9886 87.2957 35.9684V35.3639H92.3883V35.9684C92.076 35.9886 91.8242 36.0339 91.6328 36.1044C91.4514 36.1649 91.3104 36.2757 91.2096 36.4369C91.1089 36.5981 91.0384 36.8197 90.9981 37.1018C90.9678 37.3738 90.9527 37.7214 90.9527 38.1445V44.2193C90.9527 44.6928 90.9678 45.0706 90.9981 45.3527C91.0384 45.6247 91.1139 45.8363 91.2247 45.9874C91.3456 46.1385 91.5068 46.2443 91.7083 46.3047C91.9199 46.3551 92.1969 46.3853 92.5394 46.3954V46.9999Z" fill="black"/>
<path d="M20.2623 40.8176V38.6401C20.2623 36.188 22.257 34.1936 24.7088 34.1936C33.9529 34.1932 41.4736 26.6729 41.4736 17.4288C41.4736 8.18465 33.9529 0.66394 24.7088 0.66394L2.20793 0.66394C1.39054 0.66394 0.728072 1.32641 0.728072 2.1438V49.6967C0.728072 50.5141 1.39054 51.1766 2.20793 51.1766H9.90322C15.6153 51.1766 20.2623 46.5297 20.2623 40.8176ZM24.7088 3.62367C32.3212 3.62367 38.5139 9.81635 38.5139 17.4288C38.5139 25.0408 32.3208 31.2339 24.7088 31.2339C20.6249 31.2339 17.3025 34.5563 17.3025 38.6401V40.8176C17.3025 44.3908 14.7563 47.3806 11.3831 48.0681L11.3831 3.62367L24.7088 3.62367Z" fill="black"/>
<rect x="20.1636" y="0.66394" width="1.57852" height="11.9376" fill="black"/>
<path d="M15.724 13.1936C15.724 12.3218 16.4308 11.6151 17.3026 11.6151H24.6032C25.475 11.6151 26.1817 12.3218 26.1817 13.1936V31.3326C26.1817 32.0408 25.7101 32.6623 25.028 32.8529L20.403 34.1452C19.8322 34.3047 19.3988 34.7704 19.2808 35.3512L17.0139 46.5114C16.9523 46.815 16.6853 47.0332 16.3755 47.0332C16.0157 47.0332 15.724 46.7415 15.724 46.3817V13.1936Z" fill="black"/>
<circle cx="20.9529" cy="12.6018" r="1.97315" fill="black"/>
<path d="M35.2583 5.8927H36.8368V12.6014H35.2583V5.8927Z" fill="black"/>
<path d="M30.1281 13.1936C30.1281 12.3218 30.8348 11.6151 31.7066 11.6151H39.0072C39.879 11.6151 40.5857 12.3218 40.5857 13.1936V20.5847C40.5857 20.9713 40.4439 21.3445 40.187 21.6335L31.3177 31.6114C31.1885 31.7567 31.0034 31.8399 30.8089 31.8399C30.4329 31.8399 30.1281 31.5351 30.1281 31.1591V13.1936Z" fill="black"/>
<circle cx="36.0475" cy="12.6018" r="1.97315" fill="black"/>
</svg>
